<?xml version="1.0" encoding="iso-8859-1"?>
<!-- Generator: Adobe Illustrator 19.0.0, SVG Export Plug-In . SVG Version: 6.00 Build 0)  -->
<svg version="1.1" id="Layer_1" xmlns="http://www.w3.org/2000/svg" xmlns:xlink="http://www.w3.org/1999/xlink" x="0px" y="0px"
	 viewBox="0 0 512 512" style="enable-background:new 0 0 512 512;" xml:space="preserve">
<g>
	<g>
		<path d="M217.434,33.38l-1.642,0.145C146.629,39.622,92.224,67.54,58.762,89.887c-36.298,24.242-56.08,46.855-56.904,47.806
			L0,139.837v232.198V478.62h106.585h136.731h155.141H512V339.7V192.69v-55.398L217.434,33.38z M15.208,463.412v-75.828
			c40.139,3.629,72.199,35.689,75.828,75.828H15.208z M390.123,463.412H251.652c-7.179-12.25-10.956-26.16-10.956-40.477
			c0-44.218,35.973-80.191,80.191-80.191s80.191,35.974,80.191,80.191C401.078,437.252,397.302,451.161,390.123,463.412z
			 M496.792,324c-28.567-3.737-50.693-28.235-50.693-57.803c0-29.569,22.127-54.067,50.693-57.803V324z M496.792,193.085
			c-36.971,3.817-65.901,35.149-65.901,73.112s28.93,69.295,65.901,73.112v124.104h-89.508c5.914-12.6,9.002-26.373,9.002-40.477
			c0-52.603-42.796-95.399-95.399-95.399s-95.399,42.796-95.399,95.399c0,14.105,3.088,27.877,9.002,40.477H106.296
			c-3.704-48.529-42.559-87.384-91.088-91.088V150.278h83.644V135.07H25.885c9.208-8.57,23.31-20.545,41.757-32.825
			c31.643-21.063,82.885-47.335,147.852-53.422l244.49,86.247H312.401c-7.699-26.423-32.12-45.791-60.995-45.791
			c-28.875,0-53.296,19.369-60.995,45.791h-71.281v15.208h68.806c-0.033,0.843-0.065,1.685-0.065,2.536
			c0,35.033,28.502,63.535,63.535,63.535c35.033,0,63.535-28.502,63.535-63.535c0-0.85-0.03-1.693-0.065-2.536h181.916V193.085z
			 M299.733,152.812c0,26.647-21.679,48.327-48.327,48.327c-26.647,0-48.327-21.679-48.327-48.327s21.679-48.327,48.327-48.327
			C278.054,104.486,299.733,126.165,299.733,152.812z"/>
	</g>
</g>
<g>
	<g>
		<path d="M320.887,297.12v15.208c60.989,0,110.607,49.617,110.607,110.607h15.208C446.702,353.56,390.262,297.12,320.887,297.12z"
			/>
	</g>
</g>
<g>
	<g>
		<path d="M135.351,242.371c-25.437,0-46.131,20.694-46.131,46.131c0,25.437,20.694,46.131,46.131,46.131
			c25.437,0,46.131-20.694,46.131-46.131S160.787,242.371,135.351,242.371z M135.351,319.424c-17.051,0-30.923-13.872-30.923-30.923
			c0-17.051,13.872-30.923,30.923-30.923c17.051,0,30.923,13.872,30.923,30.923C166.273,305.552,152.402,319.424,135.351,319.424z"
			/>
	</g>
</g>
<g>
</g>
<g>
</g>
<g>
</g>
<g>
</g>
<g>
</g>
<g>
</g>
<g>
</g>
<g>
</g>
<g>
</g>
<g>
</g>
<g>
</g>
<g>
</g>
<g>
</g>
<g>
</g>
<g>
</g>
</svg>
