<?xml version="1.0" encoding="UTF-8"?>
<!DOCTYPE svg PUBLIC "-//W3C//DTD SVG 1.1//EN" "http://www.w3.org/Graphics/SVG/1.1/DTD/svg11.dtd">
<svg version="1.1" xmlns="http://www.w3.org/2000/svg" xmlns:xlink="http://www.w3.org/1999/xlink" x="0" y="0" width="508" height="565" viewBox="0, 0, 508, 565">
  <g id="Layer_1">
    <path d="M101.531,306.755 L36.317,291.96 C36.317,291.96 33.934,282.449 23.944,278.63 C13.953,274.831 0.604,308.611 15.819,323.367 C31.072,338.143 89.11,341.003 89.11,341.003" fill="#EFC36B"/>
    <path d="M101.531,306.755 L36.317,291.96 C36.317,291.96 33.934,282.449 23.944,278.63 C13.953,274.831 0.604,308.611 15.819,323.367 C31.072,338.143 89.11,341.003 89.11,341.003" fill-opacity="0" stroke="#3C2C1E" stroke-width="10" stroke-linecap="round" stroke-linejoin="round"/>
    <path d="M161.795,486.159 L158.436,535.447 C158.436,535.447 141.6,547.292 144.969,553.689 C148.338,560.085 186.483,560.075 192.088,544.558 C197.694,529.05 203.289,484.324 203.289,484.324" fill="#EFC36B"/>
    <path d="M161.795,486.159 L158.436,535.447 C158.436,535.447 141.6,547.292 144.969,553.689 C148.338,560.085 186.483,560.075 192.088,544.558 C197.694,529.05 203.289,484.324 203.289,484.324" fill-opacity="0" stroke="#3C2C1E" stroke-width="10" stroke-linecap="round" stroke-linejoin="round"/>
    <path d="M374.842,337.4 L438.856,353.152 C438.856,353.152 445.164,345.808 455.662,346.853 C466.141,347.908 463.026,383.591 443.055,389.89 C423.114,396.179 370.653,373.103 370.653,373.103" fill="#EFC36B"/>
    <path d="M374.842,337.4 L438.856,353.152 C438.856,353.152 445.164,345.808 455.662,346.853 C466.141,347.908 463.026,383.591 443.055,389.89 C423.114,396.179 370.653,373.103 370.653,373.103" fill-opacity="0" stroke="#3C2C1E" stroke-width="10" stroke-linecap="round" stroke-linejoin="round"/>
    <path d="M304.451,486.159 L307.811,535.447 C307.811,535.447 324.647,547.292 321.287,553.689 C317.908,560.085 279.774,560.075 274.178,544.558 C268.572,529.05 262.967,484.324 262.967,484.324" fill="#EFC36B"/>
    <path d="M304.451,486.159 L307.811,535.447 C307.811,535.447 324.647,547.292 321.287,553.689 C317.908,560.085 279.774,560.075 274.178,544.558 C268.572,529.05 262.967,484.324 262.967,484.324" fill-opacity="0" stroke="#3C2C1E" stroke-width="10" stroke-linecap="round" stroke-linejoin="round"/>
    <path d="M153.641,314.724 C153.641,314.724 104.627,290.837 97.098,295.437 C89.549,300.027 74.471,361.579 81.072,364.333 C87.664,367.097 141.395,371.687 141.395,371.687 C141.395,371.687 135.74,430.486 142.332,430.486 C148.944,430.486 335.565,432.322 338.397,428.659 C341.209,424.978 333.68,375.359 333.68,375.359 L364.793,385.466 C364.793,385.466 398.719,333.103 394.002,328.503 C389.305,323.914 343.104,302.781 343.104,302.781" fill="#FFFFFE"/>
    <path d="M153.641,314.724 C153.641,314.724 104.627,290.837 97.098,295.437 C89.549,300.027 74.471,361.579 81.072,364.333 C87.664,367.097 141.395,371.687 141.395,371.687 C141.395,371.687 135.74,430.486 142.332,430.486 C148.944,430.486 335.565,432.322 338.397,428.659 C341.209,424.978 333.68,375.359 333.68,375.359 L364.793,385.466 C364.793,385.466 398.719,333.103 394.002,328.503 C389.305,323.914 343.104,302.781 343.104,302.781" fill-opacity="0" stroke="#3C2C1E" stroke-width="10" stroke-linecap="round" stroke-linejoin="round"/>
    <path d="M137.586,485.242 C150.369,485.242 216.981,487.977 219.715,487.068 C222.459,486.159 232.498,471.561 232.498,471.561 C232.498,471.561 244.354,490.72 249.832,490.72 C255.301,490.72 338.289,491.501 344.754,487.986 C354.783,482.507 327.41,322.8 327.41,322.8 L300.028,325.544 C300.028,325.544 303.69,404.939 300.028,404.939 C296.375,404.939 167.713,407.673 166.795,404.031 C165.877,400.378 169.276,312.263 169.276,312.263 C169.276,312.263 149.207,307.693 146.473,307.693 C143.739,307.693 124.822,485.242 137.586,485.242" fill="#60C1E1"/>
    <path d="M137.586,485.242 C150.369,485.242 216.981,487.977 219.715,487.068 C222.459,486.159 232.498,471.561 232.498,471.561 C232.498,471.561 244.354,490.72 249.832,490.72 C255.301,490.72 338.289,491.501 344.754,487.986 C354.783,482.507 327.41,322.8 327.41,322.8 L300.028,325.544 C300.028,325.544 303.69,404.939 300.028,404.939 C296.375,404.939 167.713,407.673 166.795,404.031 C165.877,400.378 169.276,312.263 169.276,312.263 C169.276,312.263 149.207,307.693 146.473,307.693 C143.739,307.693 124.822,485.242 137.586,485.242 z" fill-opacity="0" stroke="#3C2C1E" stroke-width="10" stroke-linecap="round" stroke-linejoin="round"/>
    <path d="M490.36,217.79 C493.875,217.79 497.225,218.415 500.477,219.333 L500.477,187.048 L7.147,119.773 L7.147,184.05 C9.559,183.357 12.049,182.898 14.627,182.898 C32.967,182.898 47.83,201.677 47.83,224.831 C47.83,248.015 32.967,266.794 14.627,266.794 C12.049,266.794 9.559,266.335 7.147,265.623 L7.147,290.027 L500.477,368.933 L500.477,298.445 C497.225,299.353 493.875,299.998 490.36,299.998 C468.699,299.998 451.151,281.589 451.151,258.884 C451.151,236.199 468.699,217.79 490.36,217.79" fill="#E9A153"/>
    <path d="M490.36,217.79 C493.875,217.79 497.225,218.415 500.477,219.333 L500.477,187.048 L7.147,119.773 L7.147,184.05 C9.559,183.357 12.049,182.898 14.627,182.898 C32.967,182.898 47.83,201.677 47.83,224.831 C47.83,248.015 32.967,266.794 14.627,266.794 C12.049,266.794 9.559,266.335 7.147,265.623 L7.147,290.027 L500.477,368.933 L500.477,298.445 C497.225,299.353 493.875,299.998 490.36,299.998 C468.699,299.998 451.151,281.589 451.151,258.884 C451.151,236.199 468.699,217.79 490.36,217.79 z" fill-opacity="0" stroke="#3C2C1E" stroke-width="10" stroke-linecap="round" stroke-linejoin="round"/>
    <path d="M326.405,71.355 C317.235,74.061 305.653,75.749 292.84,75.749 C263.485,75.749 239.686,67.204 239.686,56.648 C239.686,48.093 255.428,40.935 276.981,38.503 L230.545,7.645 L7.137,117.273 L500.467,187.039 L326.405,71.355" fill="#EFC36B"/>
    <path d="M326.405,71.355 C317.235,74.061 305.653,75.749 292.84,75.749 C263.485,75.749 239.686,67.204 239.686,56.648 C239.686,48.093 255.428,40.935 276.981,38.503 L230.545,7.645 L7.137,117.273 L500.467,187.039 L326.405,71.355 z" fill-opacity="0" stroke="#3C2C1E" stroke-width="10" stroke-linecap="round" stroke-linejoin="round"/>
    <path d="M174.1,199.07 C174.1,219.021 150.106,235.193 120.526,235.193 C90.936,235.193 66.951,219.021 66.951,199.07 C66.951,179.118 90.936,162.937 120.526,162.937 C150.106,162.937 174.1,179.118 174.1,199.07" fill="#B07234"/>
    <path d="M174.1,199.07 C174.1,219.021 150.106,235.193 120.526,235.193 C90.936,235.193 66.951,219.021 66.951,199.07 C66.951,179.118 90.936,162.937 120.526,162.937 C150.106,162.937 174.1,179.118 174.1,199.07 z" fill-opacity="0" stroke="#3C2C1E" stroke-width="10" stroke-linecap="round" stroke-linejoin="round"/>
    <path d="M429.051,285.896 C429.051,303.777 414.178,318.279 395.828,318.279 C377.479,318.279 362.596,303.777 362.596,285.896 C362.596,268.005 377.479,253.503 395.828,253.503 C414.178,253.503 429.051,268.005 429.051,285.896" fill="#B07234"/>
    <path d="M429.051,285.896 C429.051,303.777 414.178,318.279 395.828,318.279 C377.479,318.279 362.596,303.777 362.596,285.896 C362.596,268.005 377.479,253.503 395.828,253.503 C414.178,253.503 429.051,268.005 429.051,285.896 z" fill-opacity="0" stroke="#3C2C1E" stroke-width="10" stroke-linecap="round" stroke-linejoin="round"/>
    <path d="M223.914,94.021 C223.914,104.577 200.115,113.132 170.75,113.132 C141.395,113.132 117.606,104.577 117.606,94.021 C117.606,83.474 141.395,74.919 170.75,74.919 C200.115,74.919 223.914,83.474 223.914,94.021" fill="#E9A153"/>
    <path d="M223.914,94.021 C223.914,104.577 200.115,113.132 170.75,113.132 C141.395,113.132 117.606,104.577 117.606,94.021 C117.606,83.474 141.395,74.919 170.75,74.919 C200.115,74.919 223.914,83.474 223.914,94.021 z" fill-opacity="0" stroke="#3C2C1E" stroke-width="10" stroke-linecap="round" stroke-linejoin="round"/>
    <path d="M336.873,120.603 C336.873,131.169 322,139.714 303.641,139.714 C285.301,139.714 270.418,131.169 270.418,120.603 C270.418,110.066 285.301,101.521 303.641,101.521 C322,101.521 336.873,110.066 336.873,120.603" fill="#E9A153"/>
    <path d="M336.873,120.603 C336.873,131.169 322,139.714 303.641,139.714 C285.301,139.714 270.418,131.169 270.418,120.603 C270.418,110.066 285.301,101.521 303.641,101.521 C322,101.521 336.873,110.066 336.873,120.603 z" fill-opacity="0" stroke="#3C2C1E" stroke-width="10" stroke-linecap="round" stroke-linejoin="round"/>
    <path d="M216.961,252.605 C216.961,274.001 199.627,291.316 178.24,291.316 C156.854,291.316 139.53,274.001 139.53,252.605 C139.53,231.228 156.854,213.894 178.24,213.894 C199.627,213.894 216.961,231.228 216.961,252.605" fill="#E15D5F"/>
    <path d="M171.717,229.304 C173.016,232.195 170.34,236.199 165.78,238.249 C161.19,240.3 156.434,239.626 155.135,236.736 C153.846,233.845 156.502,229.831 161.082,227.781 C165.662,225.73 170.428,226.414 171.717,229.304" fill="#FFFFFE"/>
    <path d="M354.598,252.605 C354.598,274.001 337.274,291.316 315.887,291.316 C294.5,291.316 277.166,274.001 277.166,252.605 C277.166,231.228 294.5,213.894 315.887,213.894 C337.274,213.894 354.598,231.228 354.598,252.605" fill="#E15D5F"/>
    <path d="M309.354,229.304 C310.653,232.195 307.987,236.199 303.416,238.249 C298.836,240.3 294.08,239.626 292.781,236.736 C291.492,233.845 294.139,229.831 298.729,227.781 C303.299,225.73 308.065,226.414 309.354,229.304" fill="#FFFFFE"/>
    <path d="M222.684,221.55 C222.684,232.107 217.235,240.661 210.496,240.661 C203.768,240.661 198.309,232.107 198.309,221.55 C198.309,210.984 203.768,202.429 210.496,202.429 C217.235,202.429 222.684,210.984 222.684,221.55" fill="#3C2C1E"/>
    <path d="M290.555,221.55 C290.555,232.107 285.106,240.661 278.367,240.661 C271.639,240.661 266.18,232.107 266.18,221.55 C266.18,210.984 271.639,202.429 278.367,202.429 C285.106,202.429 290.555,210.984 290.555,221.55" fill="#3C2C1E"/>
    <path d="M199.744,258.347 L285.291,257.39 C285.291,257.39 279.559,303.279 240.369,301.843 C201.18,300.408 199.744,258.347 199.744,258.347" fill="#E05659"/>
    <path d="M199.744,258.347 L285.291,257.39 C285.291,257.39 279.559,303.279 240.369,301.843 C201.18,300.408 199.744,258.347 199.744,258.347 z" fill-opacity="0" stroke="#3C2C1E" stroke-width="10" stroke-linecap="round" stroke-linejoin="round"/>
  </g>
</svg>
